<mxfile host="app.diagrams.net" modified="2022-09-05T07:28:11.458Z" agent="5.0 (Windows)" etag="W-0Hm4P8WW-be8bgGFAc" version="20.2.4" type="github">
  <diagram id="2ksIqZyV7gIxfJcrH7f4" name="Page-1">
    <mxGraphModel dx="2062" dy="1112" grid="1" gridSize="10" guides="1" tooltips="1" connect="1" arrows="1" fold="1" page="1" pageScale="1" pageWidth="827" pageHeight="1169" math="0" shadow="0">
      <root>
        <mxCell id="0" />
        <mxCell id="1" parent="0" />
        <mxCell id="iufQhGSFE3OSjRcF7Lol-2" style="edgeStyle=orthogonalEdgeStyle;rounded=0;orthogonalLoop=1;jettySize=auto;html=1;" edge="1" parent="1" source="iufQhGSFE3OSjRcF7Lol-1" target="iufQhGSFE3OSjRcF7Lol-3">
          <mxGeometry relative="1" as="geometry">
            <mxPoint x="90" y="260" as="targetPoint" />
            <Array as="points">
              <mxPoint x="230" y="195" />
              <mxPoint x="90" y="195" />
            </Array>
          </mxGeometry>
        </mxCell>
        <mxCell id="iufQhGSFE3OSjRcF7Lol-1" value="" style="rounded=1;whiteSpace=wrap;html=1;" vertex="1" parent="1">
          <mxGeometry x="170" y="120" width="120" height="50" as="geometry" />
        </mxCell>
        <mxCell id="iufQhGSFE3OSjRcF7Lol-3" value="" style="rhombus;whiteSpace=wrap;html=1;" vertex="1" parent="1">
          <mxGeometry x="50" y="210" width="80" height="80" as="geometry" />
        </mxCell>
      </root>
    </mxGraphModel>
  </diagram>
</mxfile>
